#!OML:ASF F:\VICON\USERDATA\INSTALL\rory3\rory3.ASF
:FULLY-SPECIFIED
:DEGREES
333
root -6.12624 16.9415 19.3478 556.817 -38.2841 189.021
lowerback -4.57249 5.46839 3.66762
upperback -10.2089 6.65553 2.31009
thorax -8.04522 2.75242 0.306827
lowerneck -12.529 -3.99084 -5.39944
upperneck 23.4727 -7.10314 7.6561
head 9.98391 -3.22227 2.6585
rclavicle -2.80286e-014 1.55052e-014
rhumerus 178.669 -53.4807 144.347
rradius 12.4026
rwrist 128.516
rhand -4.98384 16.0509
rfingers 7.12502
rthumb 20.8089 -12.8533
lclavicle -2.80286e-014 1.55052e-014
lhumerus -22.9002 12.3155 21.8835
lradius 28.6738
lwrist -15.2904
lhand 19.9509 21.1922
lfingers 7.12502
lthumb 44.4894 44.8902
rfemur -12.3119 8.39515 6.62386
rtibia 23.2606
rfoot -55.5329 -12.187
rtoes 62.5375
lfemur -44.0234 10.8878 -25.3468
ltibia 39.7426
lfoot -31.9154 25.5117
ltoes 12.4747
334
root -6.12008 16.9757 19.3698 557.214 -37.1198 189.336
lowerback -4.38016 5.50118 3.44484
upperback -10.8012 6.65724 2.1951
thorax -8.82896 2.71108 0.274081
lowerneck -12.0548 -3.7169 -4.93794
upperneck 23.4548 -6.89084 7.71933
head 9.85552 -3.10589 2.63618
rclavicle -3.70236e-014 -5.92378e-014
rhumerus 178.064 -53.4629 146.505
rradius 13.0322
rwrist 130.744
rhand -4.26109 15.0574
rfingers 7.12502
rthumb 21.5032 -13.769
lclavicle -3.70236e-014 -5.92378e-014
lhumerus -23.0582 12.9905 19.6344
lradius 27.8015
lwrist -16.7387
lhand 19.3547 21.1178
lfingers 7.12502
lthumb 43.9335 45.0255
rfemur -11.7759 8.52274 7.44689
rtibia 23.0062
rfoot -54.8214 -13.1193
rtoes 62.4881
lfemur -44.3363 11.4793 -25.3323
ltibia 39.0092
lfoot -31.7638 26.2132
ltoes 12.2201
335
root -6.11614 17.0096 19.3894 557.528 -35.9829 189.728
lowerback -4.39968 5.53875 3.21406
upperback -11.1393 6.66404 2.17533
thorax -9.2233 2.69837 0.371699
lowerneck -11.8258 -3.42956 -4.32454
upperneck 23.2203 -6.54855 7.49999
head 9.67464 -2.92796 2.50021
rclavicle 1.02548e-013 2.74323e-014
rhumerus 176.842 -53.5216 149.237
rradius 13.6127
rwrist 132.222
rhand -3.4066 14.1609
rfingers 7.12502
rthumb 22.3237 -14.5695
lclavicle 1.02548e-013 2.74323e-014
lhumerus -23.1127 12.8518 17.7577
lradius 27.2462
lwrist -17.2378
lhand 18.894 21.1747
lfingers 7.12502
lthumb 43.5034 45.2404
rfemur -11.1568 8.84397 8.34856
rtibia 22.701
rfoot -54.1863 -14.6821
rtoes 62.4869
lfemur -44.542 12.0123 -25.1944
ltibia 38.2959
lfoot -32.2969 26.3577
ltoes 13.8773
336
root -6.13842 17.0324 19.403 558.186 -34.8229 189.242
lowerback -4.71179 5.57139 2.53376
upperback -10.9868 6.68537 1.99866
thorax -8.92453 2.77398 0.583738
lowerneck -12.5919 -3.34295 -4.1627
upperneck 23.0346 -6.36888 7.47897
head 9.73788 -2.79821 2.47707
rclavicle -2.04189e-014 -3.53837e-014
rhumerus 174.912 -53.4139 152.906
rradius 13.8194
rwrist 132.783
rhand -2.10865 12.8182
rfingers 7.12502
rthumb 23.5692 -15.7575
lclavicle -2.04189e-014 -3.53837e-014
lhumerus -22.762 12.692 16.4676
lradius 26.8184
lwrist -17.1285
lhand 18.1514 21.4935
lfingers 7.12502
lthumb 42.8092 45.8065
rfemur -10.1853 8.22456 8.38207
rtibia 22.2823
rfoot -52.8287 -16.1121
rtoes 62.5637
lfemur -44.3937 12.3643 -25.8759
ltibia 37.5922
lfoot -32.9197 26.5032
ltoes 15.3673
337
root -6.15747 17.0503 19.4169 558.84 -33.6709 188.703
lowerback -5.14998 5.61329 1.78137
upperback -10.6844 6.73368 1.86518
thorax -8.40393 2.87926 0.896942
lowerneck -13.608 -3.32559 -4.21352
upperneck 22.8565 -6.22223 7.46954
head 9.86104 -2.68921 2.48847
rclavicle 3.08955e-014 -3.97569e-014
rhumerus 172.705 -52.9046 157.038
rradius 13.6708
rwrist 132.915
rhand -0.757369 10.8539
rfingers 7.12502
rthumb 24.8647 -17.5491
lclavicle 3.08955e-014 -3.97569e-014
lhumerus -22.2984 12.8393 15.321
lradius 26.3846
lwrist -17.1047
lhand 17.5082 21.9465
lfingers 7.12502
lthumb 42.2071 46.4668
rfemur -9.17387 7.49672 8.35957
rtibia 21.8218
rfoot -51.4966 -17.0166
rtoes 62.6208
lfemur -44.3007 12.7624 -26.6375
ltibia 36.9797
lfoot -33.567 26.6437
ltoes 16.3752
338
root -6.15985 17.0722 19.4307 559.038 -32.6665 188.937
lowerback -5.31582 5.70429 1.54771
upperback -10.6939 6.8378 1.84947
thorax -8.34755 2.94517 1.01991
lowerneck -13.9071 -3.27488 -4.17078
upperneck 22.6518 -6.13674 7.56728
head 9.84219 -2.62278 2.52204
rclavicle 5.54574e-014 6.85807e-014
rhumerus 171.073 -52.3083 160.482
rradius 13.7546
rwrist 133.165
rhand 0.0201238 9.72905
rfingers 7.12502
rthumb 25.6096 -18.5689
lclavicle 5.54574e-014 6.85807e-014
lhumerus -21.8754 13.0431 13.881
lradius 25.8637
lwrist -17.7145
lhand 16.9142 22.2842
lfingers 7.12502
lthumb 41.6503 46.9903
rfemur -8.13656 7.30744 9.18793
rtibia 21.2174
rfoot -51.2906 -16.4931
rtoes 62.6474
lfemur -44.4137 13.4219 -26.6742
ltibia 36.5105
lfoot -33.7384 26.973
ltoes 16.4094
